<svg width="163" height="81" viewBox="0 0 163 81" fill="none" xmlns="http://www.w3.org/2000/svg">
<path d="M34.928 56.088C35.3973 56.088 35.8133 56.2693 36.176 56.632L39.568 60.312C37.6907 62.6373 35.376 64.4187 32.624 65.656C29.8933 66.8933 26.608 67.512 22.768 67.512C19.3333 67.512 16.24 66.9253 13.488 65.752C10.7573 64.5787 8.42133 62.9467 6.48 60.856C4.53867 58.7653 3.04533 56.2693 2 53.368C0.976 50.4667 0.464 47.2987 0.464 43.864C0.464 40.3867 1.01867 37.208 2.128 34.328C3.23733 31.4267 4.79467 28.9307 6.8 26.84C8.82667 24.7493 11.2373 23.128 14.032 21.976C16.8267 20.8027 19.92 20.216 23.312 20.216C26.6827 20.216 29.6693 20.7707 32.272 21.88C34.896 22.9893 37.1253 24.44 38.96 26.232L36.08 30.232C35.9093 30.488 35.6853 30.712 35.408 30.904C35.152 31.096 34.7893 31.192 34.32 31.192C34 31.192 33.6693 31.1067 33.328 30.936C32.9867 30.744 32.6133 30.52 32.208 30.264C31.8027 29.9867 31.3333 29.688 30.8 29.368C30.2667 29.048 29.648 28.76 28.944 28.504C28.24 28.2267 27.4187 28.0027 26.48 27.832C25.5627 27.64 24.496 27.544 23.28 27.544C21.2107 27.544 19.312 27.9173 17.584 28.664C15.8773 29.3893 14.4053 30.456 13.168 31.864C11.9307 33.2507 10.9707 34.9573 10.288 36.984C9.60533 38.9893 9.264 41.2827 9.264 43.864C9.264 46.4667 9.62667 48.7813 10.352 50.808C11.0987 52.8347 12.1013 54.5413 13.36 55.928C14.6187 57.3147 16.1013 58.3813 17.808 59.128C19.5147 59.8533 21.3493 60.216 23.312 60.216C24.4853 60.216 25.5413 60.152 26.48 60.024C27.44 59.896 28.3147 59.6933 29.104 59.416C29.9147 59.1387 30.672 58.7867 31.376 58.36C32.1013 57.912 32.816 57.368 33.52 56.728C33.7333 56.536 33.9573 56.3867 34.192 56.28C34.4267 56.152 34.672 56.088 34.928 56.088ZM59.4485 42.744C61.0698 42.744 62.4778 42.5413 63.6725 42.136C64.8885 41.7307 65.8805 41.176 66.6485 40.472C67.4378 39.7467 68.0245 38.8933 68.4085 37.912C68.7925 36.9307 68.9845 35.8533 68.9845 34.68C68.9845 32.3333 68.2058 30.5307 66.6485 29.272C65.1125 28.0133 62.7552 27.384 59.5765 27.384H54.0725V42.744H59.4485ZM81.5925 67H73.8165C72.3445 67 71.2778 66.424 70.6165 65.272L60.8885 50.456C60.5258 49.9013 60.1205 49.5067 59.6725 49.272C59.2458 49.0373 58.6058 48.92 57.7525 48.92H54.0725V67H45.4645V20.728H59.5765C62.7125 20.728 65.4005 21.0587 67.6405 21.72C69.9018 22.36 71.7472 23.2667 73.1765 24.44C74.6272 25.6133 75.6938 27.0213 76.3765 28.664C77.0592 30.2853 77.4005 32.0773 77.4005 34.04C77.4005 35.5973 77.1658 37.0693 76.6965 38.456C76.2485 39.8427 75.5872 41.1013 74.7125 42.232C73.8592 43.3627 72.7925 44.3547 71.5125 45.208C70.2538 46.0613 68.8138 46.7333 67.1925 47.224C67.7472 47.544 68.2592 47.928 68.7285 48.376C69.1978 48.8027 69.6245 49.3147 70.0085 49.912L81.5925 67Z" fill="black"/>
<g clip-path="url(#clip0_16_2)">
<path d="M111.327 5.06249C112.276 4.11342 113.564 3.58026 114.906 3.58026C116.249 3.58026 117.536 4.11342 118.485 5.06249L121.761 8.33287C122.236 8.80817 122.503 9.45282 122.503 10.125C122.503 10.7972 122.236 11.4418 121.761 11.9171C121.286 12.3924 120.641 12.6594 119.969 12.6594C119.297 12.6594 118.652 12.3924 118.177 11.9171L114.906 8.64168L92.125 31.4229V63.2812C92.125 63.9526 92.3917 64.5964 92.8664 65.0711C93.3411 65.5458 93.9849 65.8125 94.6562 65.8125C95.3276 65.8125 95.9714 66.0792 96.4461 66.5539C96.9208 67.0286 97.1875 67.6724 97.1875 68.3437C97.1875 69.0151 96.9208 69.6589 96.4461 70.1336C95.9714 70.6083 95.3276 70.875 94.6562 70.875C92.6423 70.875 90.7108 70.0749 89.2867 68.6508C87.8625 67.2267 87.0625 65.2952 87.0625 63.2812V36.4854L86.3234 37.2296C85.8481 37.7049 85.2034 37.9719 84.5312 37.9719C83.8591 37.9719 83.2144 37.7049 82.7391 37.2296C82.2638 36.7543 81.9968 36.1097 81.9968 35.4375C81.9968 34.7653 82.2638 34.1207 82.7391 33.6454L111.327 5.06249ZM126.515 10.125C127.464 9.17592 128.751 8.64276 130.094 8.64276C131.436 8.64276 132.724 9.17592 133.673 10.125L142.75 19.2021V12.6562C142.75 11.9849 143.017 11.3411 143.491 10.8664C143.966 10.3917 144.61 10.125 145.281 10.125H150.344C151.015 10.125 151.659 10.3917 152.134 10.8664C152.608 11.3411 152.875 11.9849 152.875 12.6562V29.3271L162.261 38.7079C162.736 39.1832 163.003 39.8278 163.003 40.5C163.003 41.1722 162.736 41.8168 162.261 42.2921C161.786 42.7674 161.141 43.0344 160.469 43.0344C159.797 43.0344 159.152 42.7674 158.677 42.2921L157.937 41.5479V68.3437C157.937 70.3577 157.137 72.2892 155.713 73.7133C154.289 75.1374 152.358 75.9375 150.344 75.9375H109.844C107.83 75.9375 105.898 75.1374 104.474 73.7133C103.05 72.2892 102.25 70.3577 102.25 68.3437V41.5479L101.511 42.2921C101.276 42.5275 100.996 42.7142 100.689 42.8415C100.381 42.9689 100.052 43.0344 99.7187 43.0344C99.3859 43.0344 99.0563 42.9689 98.7489 42.8415C98.4414 42.7142 98.162 42.5275 97.9266 42.2921C97.6913 42.0568 97.5046 41.7774 97.3772 41.4699C97.2499 41.1624 97.1843 40.8328 97.1843 40.5C97.1843 40.1672 97.2499 39.8376 97.3772 39.5301C97.5046 39.2226 97.6913 38.9432 97.9266 38.7079L126.515 10.125ZM130.094 13.7042L107.312 36.4854V68.3437C107.312 69.0151 107.579 69.6589 108.054 70.1336C108.529 70.6083 109.172 70.875 109.844 70.875H150.344C151.015 70.875 151.659 70.6083 152.134 70.1336C152.608 69.6589 152.875 69.0151 152.875 68.3437V36.4854L130.094 13.7042Z" fill="#5905C5"/>
</g>
<defs>
<clipPath id="clip0_16_2">
<rect width="81" height="81" fill="white" transform="translate(82)"/>
</clipPath>
</defs>
</svg>
